<svg width="512" height="512" viewBox="0 0 512 512" fill="none" xmlns="http://www.w3.org/2000/svg">
<path d="M285.853 141.237L194.799 59.9658L497.627 59.9578C505.564 59.9576 511.999 66.3922 511.999 74.3298V126.857C511.999 134.795 505.565 141.229 497.628 141.229L285.853 141.237Z" fill="#246DD3"/>
<path d="M364.898 306.746V225.475H467.872C475.809 225.475 482.244 231.909 482.244 239.846V292.374C482.244 300.311 475.809 306.746 467.872 306.746H364.898Z" fill="#246DD3"/>
<path d="M194.799 475.221L285.853 393.949H497.628C505.565 393.949 512 400.384 512 408.321V460.849C512 468.786 505.565 475.221 497.628 475.221H194.799Z" fill="#246DD3"/>
<path d="M438.077 265.945C438.077 386.53 340.01 484.284 219.039 484.284C98.0669 484.284 0 386.53 0 265.945C0 145.36 98.0669 47.607 219.039 47.607C340.01 47.607 438.077 145.36 438.077 265.945ZM83.6727 265.945C83.6727 340.467 144.278 400.879 219.039 400.879C293.799 400.879 354.404 340.467 354.404 265.945C354.404 191.424 293.799 131.012 219.039 131.012C144.278 131.012 83.6727 191.424 83.6727 265.945Z" fill="#2595FF"/>
</svg>
